+ filenameToUse=/home/horvathandras/vatic/vatic/public/videouploads/DJI_0051_30m_szarvasragas_jo_homokmegy_20180603_napos_napraforgo_T3.avi
+ filenameNoDot=DJI_0051_30m_szarvasragas_jo_homokmegy_20180603_napos_napraforgo_T3
+ FullUploadPath=/home/horvathandras/vatic/vatic/public/videouploads/DJI_0051_30m_szarvasragas_jo_homokmegy_20180603_napos_napraforgo_T3.avi
+ VideoDataDir=/home/horvathandras/vatic/vatic/videos
+ AvailableObjectTypes='PozitívROI NegatívROI Túrás ~Friss ~1-2Hetes ~Régebbi ~Egyéb1 ~Egyéb2 ~Egyéb3 Rágás ~Friss ~1-2Hetes ~Régebbi ~Egyéb1 ~Egyéb2 ~Egyéb3 Törés ~Friss ~1-2Hetes ~Régebbi ~Egyéb1 ~Egyéb2 ~Egyéb3 Taposás ~Friss ~1-2Hetes ~Régebbi ~Egyéb1 ~Egyéb2 ~Egyéb3 EgészségesNövény Egyéb1 Egyéb2 Egyéb3 Egyéb4 Egyéb5 Bizonytalan Művelőút Gktaposás Vetőhiba Széldöntés Jégkár Belvíz Aszály Erózió EgyszikűGyom KétszikűGyom EgyébNövvédelmiPR'
++ dirname /home/horvathandras/vatic/vatic/vatic_publisher.sh
+ cd /home/horvathandras/vatic/vatic
+ touch /home/horvathandras/vatic/vatic/public/videouploads/DJI_0051_30m_szarvasragas_jo_homokmegy_20180603_napos_napraforgo_T3.avi
+ chmod 744 /home/horvathandras/vatic/vatic/public/videouploads/DJI_0051_30m_szarvasragas_jo_homokmegy_20180603_napos_napraforgo_T3.avi
+ mkdir /home/horvathandras/vatic/vatic/videos/DJI_0051_30m_szarvasragas_jo_homokmegy_20180603_napos_napraforgo_T3
+ turkic extract /home/horvathandras/vatic/vatic/public/videouploads/DJI_0051_30m_szarvasragas_jo_homokmegy_20180603_napos_napraforgo_T3.avi /home/horvathandras/vatic/vatic/videos/DJI_0051_30m_szarvasragas_jo_homokmegy_20180603_napos_napraforgo_T3 --no-resize
ffmpeg version 2.8.14-0ubuntu0.16.04.1 Copyright (c) 2000-2018 the FFmpeg developers
  built with gcc 5.4.0 (Ubuntu 5.4.0-6ubuntu1~16.04.9) 20160609
  configuration: --prefix=/usr --extra-version=0ubuntu0.16.04.1 --build-suffix=-ffmpeg --toolchain=hardened --libdir=/usr/lib/x86_64-linux-gnu --incdir=/usr/include/x86_64-linux-gnu --cc=cc --cxx=g++ --enable-gpl --enable-shared --disable-stripping --disable-decoder=libopenjpeg --disable-decoder=libschroedinger --enable-avresample --enable-avisynth --enable-gnutls --enable-ladspa --enable-libass --enable-libbluray --enable-libbs2b --enable-libcaca --enable-libcdio --enable-libflite --enable-libfontconfig --enable-libfreetype --enable-libfribidi --enable-libgme --enable-libgsm --enable-libmodplug --enable-libmp3lame --enable-libopenjpeg --enable-libopus --enable-libpulse --enable-librtmp --enable-libschroedinger --enable-libshine --enable-libsnappy --enable-libsoxr --enable-libspeex --enable-libssh --enable-libtheora --enable-libtwolame --enable-libvorbis --enable-libvpx --enable-libwavpack --enable-libwebp --enable-libx265 --enable-libxvid --enable-libzvbi --enable-openal --enable-opengl --enable-x11grab --enable-libdc1394 --enable-libiec61883 --enable-libzmq --enable-frei0r --enable-libx264 --enable-libopencv
  libavutil      54. 31.100 / 54. 31.100
  libavcodec     56. 60.100 / 56. 60.100
  libavformat    56. 40.101 / 56. 40.101
  libavdevice    56.  4.100 / 56.  4.100
  libavfilter     5. 40.101 /  5. 40.101
  libavresample   2.  1.  0 /  2.  1.  0
  libswscale      3.  1.101 /  3.  1.101
  libswresample   1.  2.101 /  1.  2.101
  libpostproc    53.  3.100 / 53.  3.100
Input #0, mov,mp4,m4a,3gp,3g2,mj2, from '/home/horvathandras/vatic/vatic/public/videouploads/DJI_0051_30m_szarvasragas_jo_homokmegy_20180603_napos_napraforgo_T3.avi':
  Metadata:
    major_brand     : qt  
    minor_version   : 537986816
    compatible_brands: qt  
    creation_time   : 2018-06-03 08:37:20
    location        : +46.518839+19.146306+29.600
    location-{    : +46.518839+19.146306+29.600
    comment         : DE=None, Mode=P, DSW=0001
  Duration: 00:00:22.12, start: 0.000000, bitrate: 100631 kb/s
    Stream #0:0(eng): Video: h264 (High) (avc1 / 0x31637661), yuv420p(tv, bt709), 4096x2160 [SAR 1:1 DAR 256:135], 100622 kb/s, 50 fps, 50 tbr, 50k tbn, 100 tbc (default)
    Metadata:
      creation_time   : 2018-06-03 08:37:20
      handler_name    : DJI.AVC
      encoder         : AVC encoder
    Stream #0:1(eng): Data: none (priv / 0x76697270), 4 kb/s
    Metadata:
      creation_time   : 2018-06-03 08:37:20
      handler_name    : DJI.Meta
Please use -b:a or -b:v, -b is ambiguous
[swscaler @ 0xfef860] deprecated pixel format used, make sure you did set range correctly
Output #0, image2, to '/tmp/pyvision-ffmpeg-933398525/%d.jpg':
  Metadata:
    major_brand     : qt  
    minor_version   : 537986816
    compatible_brands: qt  
    comment         : DE=None, Mode=P, DSW=0001
    location        : +46.518839+19.146306+29.600
    location-{    : +46.518839+19.146306+29.600
    encoder         : Lavf56.40.101
    Stream #0:0(eng): Video: mjpeg, yuvj420p(pc), 4096x2160 [SAR 1:1 DAR 256:135], q=2-31, 10000 kb/s, 50 fps, 50 tbn, 50 tbc (default)
    Metadata:
      creation_time   : 2018-06-03 08:37:20
      handler_name    : DJI.AVC
      encoder         : Lavc56.60.100 mjpeg
Stream mapping:
  Stream #0:0 -> #0:0 (h264 (native) -> mjpeg (native))
Press [q] to stop, [?] for help
frame=    1 fps=0.6 q=19.8 size=N/A time=00:00:00.02 bitrate=N/A    frame=    3 fps=1.2 q=24.1 size=N/A time=00:00:00.06 bitrate=N/A    frame=    5 fps=1.6 q=24.8 size=N/A time=00:00:00.10 bitrate=N/A    frame=    7 fps=1.9 q=24.8 size=N/A time=00:00:00.14 bitrate=N/A    frame=    9 fps=2.1 q=24.8 size=N/A time=00:00:00.18 bitrate=N/A    frame=   11 fps=2.2 q=24.8 size=N/A time=00:00:00.22 bitrate=N/A    frame=   13 fps=2.3 q=24.8 size=N/A time=00:00:00.26 bitrate=N/A    frame=   15 fps=2.4 q=24.8 size=N/A time=00:00:00.30 bitrate=N/A    frame=   17 fps=2.5 q=24.8 size=N/A time=00:00:00.34 bitrate=N/A    frame=   19 fps=2.5 q=24.8 size=N/A time=00:00:00.38 bitrate=N/A    frame=   22 fps=2.7 q=24.8 size=N/A time=00:00:00.44 bitrate=N/A    frame=   24 fps=2.7 q=24.8 size=N/A time=00:00:00.48 bitrate=N/A    frame=   26 fps=2.8 q=24.8 size=N/A time=00:00:00.52 bitrate=N/A    frame=   28 fps=2.8 q=24.8 size=N/A time=00:00:00.56 bitrate=N/A    frame=   30 fps=2.8 q=24.8 size=N/A time=00:00:00.60 bitrate=N/A    frame=   32 fps=2.8 q=24.8 size=N/A time=00:00:00.64 bitrate=N/A    frame=   34 fps=2.8 q=24.8 size=N/A time=00:00:00.68 bitrate=N/A    frame=   37 fps=2.9 q=24.8 size=N/A time=00:00:00.74 bitrate=N/A    frame=   39 fps=2.9 q=24.8 size=N/A time=00:00:00.78 bitrate=N/A    frame=   41 fps=2.9 q=24.8 size=N/A time=00:00:00.82 bitrate=N/A    frame=   44 fps=3.0 q=24.8 size=N/A time=00:00:00.88 bitrate=N/A    frame=   47 fps=3.1 q=24.8 size=N/A time=00:00:00.94 bitrate=N/A    frame=   49 fps=3.1 q=24.8 size=N/A time=00:00:00.98 bitrate=N/A    frame=   51 fps=3.1 q=24.8 size=N/A time=00:00:01.02 bitrate=N/A    frame=   54 fps=3.1 q=24.8 size=N/A time=00:00:01.08 bitrate=N/A    frame=   57 fps=3.2 q=24.8 size=N/A time=00:00:01.14 bitrate=N/A    frame=   59 fps=3.2 q=24.8 size=N/A time=00:00:01.18 bitrate=N/A    frame=   62 fps=3.2 q=24.8 size=N/A time=00:00:01.24 bitrate=N/A    frame=   64 fps=3.2 q=24.8 size=N/A time=00:00:01.28 bitrate=N/A    frame=   66 fps=3.2 q=24.8 size=N/A time=00:00:01.32 bitrate=N/A    frame=   68 fps=3.2 q=24.8 size=N/A time=00:00:01.36 bitrate=N/A    frame=   70 fps=3.2 q=24.8 size=N/A time=00:00:01.40 bitrate=N/A    frame=   72 fps=3.2 q=24.8 size=N/A time=00:00:01.44 bitrate=N/A    frame=   74 fps=3.2 q=24.8 size=N/A time=00:00:01.48 bitrate=N/A    frame=   77 fps=3.2 q=24.8 size=N/A time=00:00:01.54 bitrate=N/A    frame=   79 fps=3.2 q=24.8 size=N/A time=00:00:01.58 bitrate=N/A    frame=   81 fps=3.2 q=24.8 size=N/A time=00:00:01.62 bitrate=N/A    frame=   84 fps=3.2 q=24.8 size=N/A time=00:00:01.68 bitrate=N/A    frame=   86 fps=3.2 q=24.8 size=N/A time=00:00:01.72 bitrate=N/A    frame=   89 fps=3.3 q=24.8 size=N/A time=00:00:01.78 bitrate=N/A    frame=   92 fps=3.3 q=24.8 size=N/A time=00:00:01.84 bitrate=N/A    frame=   94 fps=3.3 q=24.8 size=N/A time=00:00:01.88 bitrate=N/A    frame=   97 fps=3.3 q=24.8 size=N/A time=00:00:01.94 bitrate=N/A    frame=   99 fps=3.3 q=24.8 size=N/A time=00:00:01.98 bitrate=N/A    frame=  101 fps=3.3 q=24.8 size=N/A time=00:00:02.02 bitrate=N/A    frame=  103 fps=3.3 q=24.8 size=N/A time=00:00:02.06 bitrate=N/A    frame=  105 fps=3.3 q=24.8 size=N/A time=00:00:02.10 bitrate=N/A    frame=  107 fps=3.3 q=24.8 size=N/A time=00:00:02.14 bitrate=N/A    frame=  110 fps=3.4 q=24.8 size=N/A time=00:00:02.20 bitrate=N/A    frame=  113 fps=3.4 q=24.8 size=N/A time=00:00:02.26 bitrate=N/A    frame=  115 fps=3.4 q=24.8 size=N/A time=00:00:02.30 bitrate=N/A    frame=  118 fps=3.4 q=24.8 size=N/A time=00:00:02.36 bitrate=N/A    frame=  120 fps=3.4 q=24.8 size=N/A time=00:00:02.40 bitrate=N/A    frame=  122 fps=3.4 q=24.8 size=N/A time=00:00:02.44 bitrate=N/A    frame=  124 fps=3.4 q=24.8 size=N/A time=00:00:02.48 bitrate=N/A    frame=  126 fps=3.4 q=24.8 size=N/A time=00:00:02.52 bitrate=N/A    frame=  128 fps=3.4 q=24.8 size=N/A time=00:00:02.56 bitrate=N/A    frame=  130 fps=3.4 q=24.8 size=N/A time=00:00:02.60 bitrate=N/A    frame=  132 fps=3.4 q=24.8 size=N/A time=00:00:02.64 bitrate=N/A    frame=  134 fps=3.4 q=24.8 size=N/A time=00:00:02.68 bitrate=N/A    frame=  136 fps=3.4 q=24.8 size=N/A time=00:00:02.72 bitrate=N/A    frame=  139 fps=3.4 q=24.8 size=N/A time=00:00:02.78 bitrate=N/A    frame=  141 fps=3.4 q=24.8 size=N/A time=00:00:02.82 bitrate=N/A    frame=  143 fps=3.4 q=24.8 size=N/A time=00:00:02.86 bitrate=N/A    frame=  145 fps=3.4 q=24.8 size=N/A time=00:00:02.90 bitrate=N/A    frame=  148 fps=3.4 q=24.8 size=N/A time=00:00:02.96 bitrate=N/A    frame=  150 fps=3.4 q=24.8 size=N/A time=00:00:03.00 bitrate=N/A    frame=  152 fps=3.4 q=24.8 size=N/A time=00:00:03.04 bitrate=N/A    frame=  155 fps=3.4 q=24.8 size=N/A time=00:00:03.10 bitrate=N/A    frame=  157 fps=3.4 q=24.8 size=N/A time=00:00:03.14 bitrate=N/A    frame=  159 fps=3.4 q=24.8 size=N/A time=00:00:03.18 bitrate=N/A    frame=  161 fps=3.4 q=24.8 size=N/A time=00:00:03.22 bitrate=N/A    frame=  163 fps=3.4 q=24.8 size=N/A time=00:00:03.26 bitrate=N/A    frame=  166 fps=3.4 q=24.8 size=N/A time=00:00:03.32 bitrate=N/A    frame=  169 fps=3.5 q=24.8 size=N/A time=00:00:03.38 bitrate=N/A    frame=  172 fps=3.5 q=24.8 size=N/A time=00:00:03.44 bitrate=N/A    frame=  174 fps=3.5 q=24.8 size=N/A time=00:00:03.48 bitrate=N/A    frame=  176 fps=3.5 q=24.8 size=N/A time=00:00:03.52 bitrate=N/A    frame=  179 fps=3.5 q=24.8 size=N/A time=00:00:03.58 bitrate=N/A    frame=  181 fps=3.5 q=24.8 size=N/A time=00:00:03.62 bitrate=N/A    frame=  184 fps=3.5 q=24.8 size=N/A time=00:00:03.68 bitrate=N/A    frame=  186 fps=3.5 q=24.8 size=N/A time=00:00:03.72 bitrate=N/A    frame=  188 fps=3.5 q=24.8 size=N/A time=00:00:03.76 bitrate=N/A    frame=  191 fps=3.5 q=24.8 size=N/A time=00:00:03.82 bitrate=N/A    frame=  194 fps=3.5 q=24.8 size=N/A time=00:00:03.88 bitrate=N/A    frame=  197 fps=3.5 q=24.8 size=N/A time=00:00:03.94 bitrate=N/A    frame=  200 fps=3.5 q=24.8 size=N/A time=00:00:04.00 bitrate=N/A    frame=  202 fps=3.5 q=24.8 size=N/A time=00:00:04.04 bitrate=N/A    frame=  204 fps=3.5 q=24.8 size=N/A time=00:00:04.08 bitrate=N/A    frame=  207 fps=3.5 q=24.8 size=N/A time=00:00:04.14 bitrate=N/A    frame=  210 fps=3.5 q=24.8 size=N/A time=00:00:04.20 bitrate=N/A    frame=  212 fps=3.6 q=24.8 size=N/A time=00:00:04.24 bitrate=N/A    frame=  214 fps=3.6 q=24.8 size=N/A time=00:00:04.28 bitrate=N/A    frame=  216 fps=3.6 q=24.8 size=N/A time=00:00:04.32 bitrate=N/A    frame=  219 fps=3.6 q=24.8 size=N/A time=00:00:04.38 bitrate=N/A    frame=  222 fps=3.6 q=24.8 size=N/A time=00:00:04.44 bitrate=N/A    frame=  225 fps=3.6 q=24.8 size=N/A time=00:00:04.50 bitrate=N/A    frame=  227 fps=3.6 q=24.8 size=N/A time=00:00:04.54 bitrate=N/A    frame=  230 fps=3.6 q=24.8 size=N/A time=00:00:04.60 bitrate=N/A    frame=  233 fps=3.6 q=24.8 size=N/A time=00:00:04.66 bitrate=N/A    frame=  236 fps=3.6 q=24.8 size=N/A time=00:00:04.72 bitrate=N/A    frame=  238 fps=3.6 q=24.8 size=N/A time=00:00:04.76 bitrate=N/A    frame=  240 fps=3.6 q=24.8 size=N/A time=00:00:04.80 bitrate=N/A    frame=  242 fps=3.6 q=24.8 size=N/A time=00:00:04.84 bitrate=N/A    frame=  244 fps=3.6 q=24.8 size=N/A time=00:00:04.88 bitrate=N/A    frame=  246 fps=3.6 q=24.8 size=N/A time=00:00:04.92 bitrate=N/A    frame=  249 fps=3.6 q=24.8 size=N/A time=00:00:04.98 bitrate=N/A    frame=  251 fps=3.6 q=24.8 size=N/A time=00:00:05.02 bitrate=N/A    frame=  253 fps=3.6 q=24.8 size=N/A time=00:00:05.06 bitrate=N/A    frame=  256 fps=3.6 q=24.8 size=N/A time=00:00:05.12 bitrate=N/A    frame=  258 fps=3.6 q=24.8 size=N/A time=00:00:05.16 bitrate=N/A    frame=  260 fps=3.6 q=24.8 size=N/A time=00:00:05.20 bitrate=N/A    frame=  263 fps=3.6 q=24.8 size=N/A time=00:00:05.26 bitrate=N/A    frame=  265 fps=3.6 q=24.8 size=N/A time=00:00:05.30 bitrate=N/A    frame=  267 fps=3.6 q=24.8 size=N/A time=00:00:05.34 bitrate=N/A    frame=  269 fps=3.6 q=24.8 size=N/A time=00:00:05.38 bitrate=N/A    frame=  272 fps=3.6 q=24.8 size=N/A time=00:00:05.44 bitrate=N/A    frame=  274 fps=3.6 q=24.8 size=N/A time=00:00:05.48 bitrate=N/A    frame=  276 fps=3.6 q=24.8 size=N/A time=00:00:05.52 bitrate=N/A    frame=  279 fps=3.6 q=24.8 size=N/A time=00:00:05.58 bitrate=N/A    frame=  282 fps=3.6 q=24.8 size=N/A time=00:00:05.64 bitrate=N/A    frame=  284 fps=3.6 q=24.8 size=N/A time=00:00:05.68 bitrate=N/A    frame=  286 fps=3.6 q=24.8 size=N/A time=00:00:05.72 bitrate=N/A    frame=  288 fps=3.6 q=24.8 size=N/A time=00:00:05.76 bitrate=N/A    frame=  291 fps=3.6 q=24.8 size=N/A time=00:00:05.82 bitrate=N/A    frame=  294 fps=3.6 q=24.8 size=N/A time=00:00:05.88 bitrate=N/A    frame=  296 fps=3.6 q=24.8 size=N/A time=00:00:05.92 bitrate=N/A    frame=  299 fps=3.6 q=24.8 size=N/A time=00:00:05.98 bitrate=N/A    frame=  301 fps=3.6 q=24.8 size=N/A time=00:00:06.02 bitrate=N/A    frame=  303 fps=3.6 q=24.8 size=N/A time=00:00:06.06 bitrate=N/A    frame=  305 fps=3.6 q=24.8 size=N/A time=00:00:06.10 bitrate=N/A    frame=  307 fps=3.6 q=24.8 size=N/A time=00:00:06.14 bitrate=N/A    frame=  309 fps=3.6 q=24.8 size=N/A time=00:00:06.18 bitrate=N/A    frame=  312 fps=3.6 q=24.8 size=N/A time=00:00:06.24 bitrate=N/A    frame=  314 fps=3.6 q=24.8 size=N/A time=00:00:06.28 bitrate=N/A    frame=  316 fps=3.6 q=24.8 size=N/A time=00:00:06.32 bitrate=N/A    frame=  318 fps=3.6 q=24.8 size=N/A time=00:00:06.36 bitrate=N/A    frame=  321 fps=3.6 q=24.8 size=N/A time=00:00:06.42 bitrate=N/A    frame=  323 fps=3.6 q=24.8 size=N/A time=00:00:06.46 bitrate=N/A    frame=  325 fps=3.6 q=24.8 size=N/A time=00:00:06.50 bitrate=N/A    frame=  327 fps=3.6 q=24.8 size=N/A time=00:00:06.54 bitrate=N/A    frame=  329 fps=3.6 q=24.8 size=N/A time=00:00:06.58 bitrate=N/A    frame=  332 fps=3.6 q=24.8 size=N/A time=00:00:06.64 bitrate=N/A    frame=  335 fps=3.6 q=24.8 size=N/A time=00:00:06.70 bitrate=N/A    frame=  337 fps=3.6 q=24.8 size=N/A time=00:00:06.74 bitrate=N/A    frame=  339 fps=3.6 q=24.8 size=N/A time=00:00:06.78 bitrate=N/A    frame=  341 fps=3.6 q=24.8 size=N/A time=00:00:06.82 bitrate=N/A    frame=  343 fps=3.6 q=24.8 size=N/A time=00:00:06.86 bitrate=N/A    frame=  346 fps=3.6 q=24.8 size=N/A time=00:00:06.92 bitrate=N/A    frame=  348 fps=3.6 q=24.8 size=N/A time=00:00:06.96 bitrate=N/A    frame=  351 fps=3.6 q=24.8 size=N/A time=00:00:07.02 bitrate=N/A    frame=  353 fps=3.6 q=24.8 size=N/A time=00:00:07.06 bitrate=N/A    frame=  355 fps=3.6 q=24.8 size=N/A time=00:00:07.10 bitrate=N/A    frame=  357 fps=3.6 q=24.8 size=N/A time=00:00:07.14 bitrate=N/A    frame=  359 fps=3.6 q=24.8 size=N/A time=00:00:07.18 bitrate=N/A    frame=  361 fps=3.6 q=24.8 size=N/A time=00:00:07.22 bitrate=N/A    frame=  364 fps=3.6 q=24.8 size=N/A time=00:00:07.28 bitrate=N/A    frame=  366 fps=3.6 q=24.8 size=N/A time=00:00:07.32 bitrate=N/A    frame=  368 fps=3.6 q=24.8 size=N/A time=00:00:07.36 bitrate=N/A    frame=  370 fps=3.6 q=24.8 size=N/A time=00:00:07.40 bitrate=N/A    frame=  373 fps=3.6 q=24.8 size=N/A time=00:00:07.46 bitrate=N/A    frame=  376 fps=3.6 q=24.8 size=N/A time=00:00:07.52 bitrate=N/A    frame=  379 fps=3.7 q=24.8 size=N/A time=00:00:07.58 bitrate=N/A    frame=  381 fps=3.7 q=24.8 size=N/A time=00:00:07.62 bitrate=N/A    frame=  383 fps=3.7 q=24.8 size=N/A time=00:00:07.66 bitrate=N/A    frame=  386 fps=3.7 q=24.8 size=N/A time=00:00:07.72 bitrate=N/A    frame=  388 fps=3.7 q=24.8 size=N/A time=00:00:07.76 bitrate=N/A    frame=  390 fps=3.7 q=24.8 size=N/A time=00:00:07.80 bitrate=N/A    frame=  393 fps=3.7 q=24.8 size=N/A time=00:00:07.86 bitrate=N/A    frame=  396 fps=3.7 q=24.8 size=N/A time=00:00:07.92 bitrate=N/A    frame=  398 fps=3.7 q=24.8 size=N/A time=00:00:07.96 bitrate=N/A    frame=  400 fps=3.7 q=24.8 size=N/A time=00:00:08.00 bitrate=N/A    frame=  402 fps=3.7 q=24.8 size=N/A time=00:00:08.04 bitrate=N/A    frame=  404 fps=3.7 q=24.8 size=N/A time=00:00:08.08 bitrate=N/A    frame=  407 fps=3.7 q=24.8 size=N/A time=00:00:08.14 bitrate=N/A    frame=  409 fps=3.7 q=24.8 size=N/A time=00:00:08.18 bitrate=N/A    frame=  411 fps=3.7 q=24.8 size=N/A time=00:00:08.22 bitrate=N/A    frame=  414 fps=3.7 q=24.8 size=N/A time=00:00:08.28 bitrate=N/A    frame=  416 fps=3.7 q=24.8 size=N/A time=00:00:08.32 bitrate=N/A    frame=  419 fps=3.7 q=24.8 size=N/A time=00:00:08.38 bitrate=N/A    frame=  421 fps=3.7 q=24.8 size=N/A time=00:00:08.42 bitrate=N/A    frame=  424 fps=3.7 q=24.8 size=N/A time=00:00:08.48 bitrate=N/A    frame=  427 fps=3.7 q=24.8 size=N/A time=00:00:08.54 bitrate=N/A    frame=  429 fps=3.7 q=24.8 size=N/A time=00:00:08.58 bitrate=N/A    frame=  432 fps=3.7 q=24.8 size=N/A time=00:00:08.64 bitrate=N/A    frame=  435 fps=3.7 q=24.8 size=N/A time=00:00:08.70 bitrate=N/A    frame=  437 fps=3.7 q=24.8 size=N/A time=00:00:08.74 bitrate=N/A    frame=  440 fps=3.7 q=24.8 size=N/A time=00:00:08.80 bitrate=N/A    frame=  442 fps=3.7 q=24.8 size=N/A time=00:00:08.84 bitrate=N/A    frame=  444 fps=3.7 q=24.8 size=N/A time=00:00:08.88 bitrate=N/A    frame=  446 fps=3.7 q=24.8 size=N/A time=00:00:08.92 bitrate=N/A    frame=  449 fps=3.7 q=24.8 size=N/A time=00:00:08.98 bitrate=N/A    frame=  451 fps=3.7 q=24.8 size=N/A time=00:00:09.02 bitrate=N/A    frame=  453 fps=3.7 q=24.8 size=N/A time=00:00:09.06 bitrate=N/A    frame=  456 fps=3.7 q=24.8 size=N/A time=00:00:09.12 bitrate=N/A    frame=  459 fps=3.7 q=24.8 size=N/A time=00:00:09.18 bitrate=N/A    frame=  461 fps=3.7 q=24.8 size=N/A time=00:00:09.22 bitrate=N/A    frame=  463 fps=3.7 q=24.8 size=N/A time=00:00:09.26 bitrate=N/A    frame=  465 fps=3.7 q=24.8 size=N/A time=00:00:09.30 bitrate=N/A    frame=  467 fps=3.7 q=24.8 size=N/A time=00:00:09.34 bitrate=N/A    frame=  470 fps=3.7 q=24.8 size=N/A time=00:00:09.40 bitrate=N/A    frame=  472 fps=3.7 q=24.8 size=N/A time=00:00:09.44 bitrate=N/A    frame=  475 fps=3.7 q=24.8 size=N/A time=00:00:09.50 bitrate=N/A    frame=  478 fps=3.7 q=24.8 size=N/A time=00:00:09.56 bitrate=N/A    frame=  480 fps=3.7 q=24.8 size=N/A time=00:00:09.60 bitrate=N/A    frame=  482 fps=3.7 q=24.8 size=N/A time=00:00:09.64 bitrate=N/A    frame=  485 fps=3.7 q=24.8 size=N/A time=00:00:09.70 bitrate=N/A    frame=  487 fps=3.7 q=24.8 size=N/A time=00:00:09.74 bitrate=N/A    frame=  489 fps=3.7 q=24.8 size=N/A time=00:00:09.78 bitrate=N/A    frame=  492 fps=3.7 q=24.8 size=N/A time=00:00:09.84 bitrate=N/A    frame=  495 fps=3.7 q=24.8 size=N/A time=00:00:09.90 bitrate=N/A    frame=  498 fps=3.7 q=24.8 size=N/A time=00:00:09.96 bitrate=N/A    frame=  500 fps=3.7 q=24.8 size=N/A time=00:00:10.00 bitrate=N/A    frame=  502 fps=3.7 q=24.8 size=N/A time=00:00:10.04 bitrate=N/A    frame=  505 fps=3.7 q=24.8 size=N/A time=00:00:10.10 bitrate=N/A    frame=  507 fps=3.7 q=24.8 size=N/A time=00:00:10.14 bitrate=N/A    frame=  509 fps=3.7 q=24.8 size=N/A time=00:00:10.18 bitrate=N/A    frame=  512 fps=3.7 q=24.8 size=N/A time=00:00:10.24 bitrate=N/A    frame=  514 fps=3.7 q=24.8 size=N/A time=00:00:10.28 bitrate=N/A    frame=  516 fps=3.7 q=24.8 size=N/A time=00:00:10.32 bitrate=N/A    frame=  519 fps=3.7 q=24.8 size=N/A time=00:00:10.38 bitrate=N/A    frame=  521 fps=3.7 q=24.8 size=N/A time=00:00:10.42 bitrate=N/A    frame=  524 fps=3.7 q=24.8 size=N/A time=00:00:10.48 bitrate=N/A    frame=  527 fps=3.7 q=24.8 size=N/A time=00:00:10.54 bitrate=N/A    frame=  529 fps=3.7 q=24.8 size=N/A time=00:00:10.58 bitrate=N/A    frame=  531 fps=3.7 q=24.8 size=N/A time=00:00:10.62 bitrate=N/A    frame=  533 fps=3.7 q=24.8 size=N/A time=00:00:10.66 bitrate=N/A    frame=  536 fps=3.7 q=24.8 size=N/A time=00:00:10.72 bitrate=N/A    frame=  539 fps=3.7 q=24.8 size=N/A time=00:00:10.78 bitrate=N/A    frame=  541 fps=3.7 q=24.8 size=N/A time=00:00:10.82 bitrate=N/A    frame=  543 fps=3.7 q=24.8 size=N/A time=00:00:10.86 bitrate=N/A    frame=  545 fps=3.7 q=24.8 size=N/A time=00:00:10.90 bitrate=N/A    frame=  547 fps=3.7 q=24.8 size=N/A time=00:00:10.94 bitrate=N/A    frame=  549 fps=3.7 q=24.8 size=N/A time=00:00:10.98 bitrate=N/A    frame=  551 fps=3.7 q=24.8 size=N/A time=00:00:11.02 bitrate=N/A    frame=  554 fps=3.7 q=24.8 size=N/A time=00:00:11.08 bitrate=N/A    frame=  556 fps=3.7 q=24.8 size=N/A time=00:00:11.12 bitrate=N/A    frame=  558 fps=3.7 q=24.8 size=N/A time=00:00:11.16 bitrate=N/A    frame=  561 fps=3.7 q=24.8 size=N/A time=00:00:11.22 bitrate=N/A    frame=  564 fps=3.7 q=24.8 size=N/A time=00:00:11.28 bitrate=N/A    frame=  566 fps=3.7 q=24.8 size=N/A time=00:00:11.32 bitrate=N/A    frame=  568 fps=3.7 q=24.8 size=N/A time=00:00:11.36 bitrate=N/A    frame=  571 fps=3.7 q=24.8 size=N/A time=00:00:11.42 bitrate=N/A    frame=  573 fps=3.7 q=24.8 size=N/A time=00:00:11.46 bitrate=N/A    frame=  575 fps=3.7 q=24.8 size=N/A time=00:00:11.50 bitrate=N/A    frame=  577 fps=3.7 q=24.8 size=N/A time=00:00:11.54 bitrate=N/A    frame=  580 fps=3.7 q=24.8 size=N/A time=00:00:11.60 bitrate=N/A    frame=  582 fps=3.7 q=24.8 size=N/A time=00:00:11.64 bitrate=N/A    frame=  585 fps=3.7 q=24.8 size=N/A time=00:00:11.70 bitrate=N/A    frame=  588 fps=3.7 q=24.8 size=N/A time=00:00:11.76 bitrate=N/A    frame=  591 fps=3.7 q=24.8 size=N/A time=00:00:11.82 bitrate=N/A    frame=  594 fps=3.7 q=24.8 size=N/A time=00:00:11.88 bitrate=N/A    frame=  596 fps=3.7 q=24.8 size=N/A time=00:00:11.92 bitrate=N/A    frame=  599 fps=3.7 q=24.8 size=N/A time=00:00:11.98 bitrate=N/A    frame=  601 fps=3.7 q=24.8 size=N/A time=00:00:12.02 bitrate=N/A    frame=  603 fps=3.7 q=24.8 size=N/A time=00:00:12.06 bitrate=N/A    frame=  606 fps=3.7 q=24.8 size=N/A time=00:00:12.12 bitrate=N/A    frame=  609 fps=3.7 q=24.8 size=N/A time=00:00:12.18 bitrate=N/A    frame=  612 fps=3.7 q=24.8 size=N/A time=00:00:12.24 bitrate=N/A    frame=  614 fps=3.7 q=24.8 size=N/A time=00:00:12.28 bitrate=N/A    frame=  617 fps=3.7 q=24.8 size=N/A time=00:00:12.34 bitrate=N/A    frame=  619 fps=3.7 q=24.8 size=N/A time=00:00:12.38 bitrate=N/A    frame=  622 fps=3.7 q=24.8 size=N/A time=00:00:12.44 bitrate=N/A    frame=  624 fps=3.7 q=24.8 size=N/A time=00:00:12.48 bitrate=N/A    frame=  627 fps=3.7 q=24.8 size=N/A time=00:00:12.54 bitrate=N/A    frame=  629 fps=3.7 q=24.8 size=N/A time=00:00:12.58 bitrate=N/A    frame=  631 fps=3.7 q=24.8 size=N/A time=00:00:12.62 bitrate=N/A    frame=  633 fps=3.7 q=24.8 size=N/A time=00:00:12.66 bitrate=N/A    frame=  636 fps=3.7 q=24.8 size=N/A time=00:00:12.72 bitrate=N/A    frame=  638 fps=3.7 q=24.8 size=N/A time=00:00:12.76 bitrate=N/A    frame=  641 fps=3.7 q=24.8 size=N/A time=00:00:12.82 bitrate=N/A    frame=  643 fps=3.7 q=24.8 size=N/A time=00:00:12.86 bitrate=N/A    frame=  646 fps=3.7 q=24.8 size=N/A time=00:00:12.92 bitrate=N/A    frame=  649 fps=3.7 q=24.8 size=N/A time=00:00:12.98 bitrate=N/A    frame=  652 fps=3.7 q=24.8 size=N/A time=00:00:13.04 bitrate=N/A    frame=  654 fps=3.7 q=24.8 size=N/A time=00:00:13.08 bitrate=N/A    frame=  656 fps=3.7 q=24.8 size=N/A time=00:00:13.12 bitrate=N/A    frame=  658 fps=3.7 q=24.8 size=N/A time=00:00:13.16 bitrate=N/A    frame=  660 fps=3.7 q=24.8 size=N/A time=00:00:13.20 bitrate=N/A    frame=  663 fps=3.8 q=24.8 size=N/A time=00:00:13.26 bitrate=N/A    frame=  665 fps=3.8 q=24.8 size=N/A time=00:00:13.30 bitrate=N/A    frame=  668 fps=3.8 q=24.8 size=N/A time=00:00:13.36 bitrate=N/A    frame=  671 fps=3.8 q=24.8 size=N/A time=00:00:13.42 bitrate=N/A    frame=  673 fps=3.8 q=24.8 size=N/A time=00:00:13.46 bitrate=N/A    frame=  675 fps=3.8 q=24.8 size=N/A time=00:00:13.50 bitrate=N/A    frame=  677 fps=3.8 q=24.8 size=N/A time=00:00:13.54 bitrate=N/A    frame=  680 fps=3.8 q=24.8 size=N/A time=00:00:13.60 bitrate=N/A    frame=  683 fps=3.8 q=24.8 size=N/A time=00:00:13.66 bitrate=N/A    frame=  685 fps=3.8 q=24.8 size=N/A time=00:00:13.70 bitrate=N/A    frame=  687 fps=3.8 q=24.8 size=N/A time=00:00:13.74 bitrate=N/A    frame=  689 fps=3.8 q=24.8 size=N/A time=00:00:13.78 bitrate=N/A    frame=  691 fps=3.8 q=24.8 size=N/A time=00:00:13.82 bitrate=N/A    frame=  694 fps=3.8 q=24.8 size=N/A time=00:00:13.88 bitrate=N/A    frame=  696 fps=3.8 q=24.8 size=N/A time=00:00:13.92 bitrate=N/A    frame=  698 fps=3.8 q=24.8 size=N/A time=00:00:13.96 bitrate=N/A    frame=  700 fps=3.8 q=24.8 size=N/A time=00:00:14.00 bitrate=N/A    frame=  702 fps=3.8 q=24.8 size=N/A time=00:00:14.04 bitrate=N/A    frame=  705 fps=3.8 q=24.8 size=N/A time=00:00:14.10 bitrate=N/A    frame=  708 fps=3.8 q=24.8 size=N/A time=00:00:14.16 bitrate=N/A    frame=  710 fps=3.8 q=24.8 size=N/A time=00:00:14.20 bitrate=N/A    frame=  713 fps=3.8 q=24.8 size=N/A time=00:00:14.26 bitrate=N/A    frame=  715 fps=3.8 q=24.8 size=N/A time=00:00:14.30 bitrate=N/A    frame=  718 fps=3.8 q=24.8 size=N/A time=00:00:14.36 bitrate=N/A    frame=  721 fps=3.8 q=24.8 size=N/A time=00:00:14.42 bitrate=N/A    frame=  723 fps=3.8 q=24.8 size=N/A time=00:00:14.46 bitrate=N/A    frame=  726 fps=3.8 q=24.8 size=N/A time=00:00:14.52 bitrate=N/A    frame=  728 fps=3.8 q=24.8 size=N/A time=00:00:14.56 bitrate=N/A    frame=  731 fps=3.8 q=24.8 size=N/A time=00:00:14.62 bitrate=N/A    frame=  733 fps=3.8 q=24.8 size=N/A time=00:00:14.66 bitrate=N/A    frame=  735 fps=3.8 q=24.8 size=N/A time=00:00:14.70 bitrate=N/A    frame=  737 fps=3.8 q=24.8 size=N/A time=00:00:14.74 bitrate=N/A    frame=  740 fps=3.8 q=24.8 size=N/A time=00:00:14.80 bitrate=N/A    frame=  742 fps=3.8 q=24.8 size=N/A time=00:00:14.84 bitrate=N/A    frame=  745 fps=3.8 q=24.8 size=N/A time=00:00:14.90 bitrate=N/A    frame=  747 fps=3.8 q=24.8 size=N/A time=00:00:14.94 bitrate=N/A    frame=  749 fps=3.8 q=24.8 size=N/A time=00:00:14.98 bitrate=N/A    frame=  751 fps=3.8 q=24.8 size=N/A time=00:00:15.02 bitrate=N/A    frame=  753 fps=3.8 q=24.8 size=N/A time=00:00:15.06 bitrate=N/A    frame=  756 fps=3.8 q=24.8 size=N/A time=00:00:15.12 bitrate=N/A    frame=  758 fps=3.8 q=24.8 size=N/A time=00:00:15.16 bitrate=N/A    frame=  760 fps=3.8 q=24.8 size=N/A time=00:00:15.20 bitrate=N/A    frame=  763 fps=3.8 q=24.8 size=N/A time=00:00:15.26 bitrate=N/A    frame=  765 fps=3.8 q=24.8 size=N/A time=00:00:15.30 bitrate=N/A    frame=  768 fps=3.8 q=24.8 size=N/A time=00:00:15.36 bitrate=N/A    frame=  771 fps=3.8 q=24.8 size=N/A time=00:00:15.42 bitrate=N/A    frame=  773 fps=3.8 q=24.8 size=N/A time=00:00:15.46 bitrate=N/A    frame=  775 fps=3.8 q=24.8 size=N/A time=00:00:15.50 bitrate=N/A    frame=  777 fps=3.8 q=24.8 size=N/A time=00:00:15.54 bitrate=N/A    frame=  779 fps=3.8 q=24.8 size=N/A time=00:00:15.58 bitrate=N/A    frame=  781 fps=3.8 q=24.8 size=N/A time=00:00:15.62 bitrate=N/A    frame=  783 fps=3.8 q=24.8 size=N/A time=00:00:15.66 bitrate=N/A    frame=  785 fps=3.8 q=24.8 size=N/A time=00:00:15.70 bitrate=N/A    frame=  787 fps=3.8 q=24.8 size=N/A time=00:00:15.74 bitrate=N/A    frame=  789 fps=3.8 q=24.8 size=N/A time=00:00:15.78 bitrate=N/A    frame=  791 fps=3.8 q=24.8 size=N/A time=00:00:15.82 bitrate=N/A    frame=  793 fps=3.8 q=24.8 size=N/A time=00:00:15.86 bitrate=N/A    frame=  795 fps=3.8 q=24.8 size=N/A time=00:00:15.90 bitrate=N/A    frame=  798 fps=3.8 q=24.8 size=N/A time=00:00:15.96 bitrate=N/A    frame=  800 fps=3.8 q=24.8 size=N/A time=00:00:16.00 bitrate=N/A    frame=  802 fps=3.8 q=24.8 size=N/A time=00:00:16.04 bitrate=N/A    frame=  804 fps=3.8 q=24.8 size=N/A time=00:00:16.08 bitrate=N/A    frame=  806 fps=3.8 q=24.8 size=N/A time=00:00:16.12 bitrate=N/A    frame=  808 fps=3.8 q=24.8 size=N/A time=00:00:16.16 bitrate=N/A    frame=  810 fps=3.8 q=24.8 size=N/A time=00:00:16.20 bitrate=N/A    frame=  812 fps=3.8 q=24.8 size=N/A time=00:00:16.24 bitrate=N/A    frame=  814 fps=3.8 q=24.8 size=N/A time=00:00:16.28 bitrate=N/A    frame=  817 fps=3.8 q=24.8 size=N/A time=00:00:16.34 bitrate=N/A    frame=  820 fps=3.8 q=24.8 size=N/A time=00:00:16.40 bitrate=N/A    frame=  823 fps=3.8 q=24.8 size=N/A time=00:00:16.46 bitrate=N/A    frame=  826 fps=3.8 q=24.8 size=N/A time=00:00:16.52 bitrate=N/A    frame=  829 fps=3.8 q=24.8 size=N/A time=00:00:16.58 bitrate=N/A    frame=  832 fps=3.8 q=24.8 size=N/A time=00:00:16.64 bitrate=N/A    frame=  835 fps=3.8 q=24.8 size=N/A time=00:00:16.70 bitrate=N/A    frame=  837 fps=3.8 q=24.8 size=N/A time=00:00:16.74 bitrate=N/A    frame=  839 fps=3.8 q=24.8 size=N/A time=00:00:16.78 bitrate=N/A    frame=  841 fps=3.8 q=24.8 size=N/A time=00:00:16.82 bitrate=N/A    frame=  844 fps=3.8 q=24.8 size=N/A time=00:00:16.88 bitrate=N/A    frame=  847 fps=3.8 q=24.8 size=N/A time=00:00:16.94 bitrate=N/A    frame=  849 fps=3.8 q=24.8 size=N/A time=00:00:16.98 bitrate=N/A    frame=  853 fps=3.8 q=24.8 size=N/A time=00:00:17.06 bitrate=N/A    frame=  856 fps=3.8 q=24.8 size=N/A time=00:00:17.12 bitrate=N/A    frame=  859 fps=3.8 q=24.8 size=N/A time=00:00:17.18 bitrate=N/A    frame=  862 fps=3.8 q=24.8 size=N/A time=00:00:17.24 bitrate=N/A    frame=  865 fps=3.8 q=24.8 size=N/A time=00:00:17.30 bitrate=N/A    frame=  868 fps=3.8 q=24.8 size=N/A time=00:00:17.36 bitrate=N/A    frame=  870 fps=3.8 q=24.8 size=N/A time=00:00:17.40 bitrate=N/A    frame=  873 fps=3.8 q=24.8 size=N/A time=00:00:17.46 bitrate=N/A    frame=  876 fps=3.8 q=24.8 size=N/A time=00:00:17.52 bitrate=N/A    frame=  879 fps=3.8 q=24.8 size=N/A time=00:00:17.58 bitrate=N/A    frame=  881 fps=3.8 q=24.8 size=N/A time=00:00:17.62 bitrate=N/A    frame=  884 fps=3.8 q=24.8 size=N/A time=00:00:17.68 bitrate=N/A    frame=  887 fps=3.8 q=24.8 size=N/A time=00:00:17.74 bitrate=N/A    frame=  889 fps=3.8 q=24.8 size=N/A time=00:00:17.78 bitrate=N/A    frame=  892 fps=3.8 q=24.8 size=N/A time=00:00:17.84 bitrate=N/A    frame=  894 fps=3.8 q=24.8 size=N/A time=00:00:17.88 bitrate=N/A    frame=  897 fps=3.8 q=24.8 size=N/A time=00:00:17.94 bitrate=N/A    frame=  900 fps=3.8 q=24.8 size=N/A time=00:00:18.00 bitrate=N/A    frame=  902 fps=3.8 q=24.8 size=N/A time=00:00:18.04 bitrate=N/A    frame=  904 fps=3.8 q=24.8 size=N/A time=00:00:18.08 bitrate=N/A    frame=  908 fps=3.8 q=24.8 size=N/A time=00:00:18.16 bitrate=N/A    frame=  911 fps=3.8 q=24.8 size=N/A time=00:00:18.22 bitrate=N/A    frame=  914 fps=3.8 q=24.8 size=N/A time=00:00:18.28 bitrate=N/A    frame=  917 fps=3.8 q=24.8 size=N/A time=00:00:18.34 bitrate=N/A    frame=  919 fps=3.8 q=24.8 size=N/A time=00:00:18.38 bitrate=N/A    frame=  921 fps=3.8 q=24.8 size=N/A time=00:00:18.42 bitrate=N/A    frame=  923 fps=3.8 q=24.8 size=N/A time=00:00:18.46 bitrate=N/A    frame=  926 fps=3.8 q=24.8 size=N/A time=00:00:18.52 bitrate=N/A    frame=  928 fps=3.8 q=24.8 size=N/A time=00:00:18.56 bitrate=N/A    frame=  930 fps=3.8 q=24.8 size=N/A time=00:00:18.60 bitrate=N/A    frame=  932 fps=3.8 q=24.8 size=N/A time=00:00:18.64 bitrate=N/A    frame=  934 fps=3.8 q=24.8 size=N/A time=00:00:18.68 bitrate=N/A    frame=  936 fps=3.8 q=24.8 size=N/A time=00:00:18.72 bitrate=N/A    frame=  938 fps=3.8 q=24.8 size=N/A time=00:00:18.76 bitrate=N/A    frame=  941 fps=3.8 q=24.8 size=N/A time=00:00:18.82 bitrate=N/A    frame=  944 fps=3.8 q=24.8 size=N/A time=00:00:18.88 bitrate=N/A    frame=  947 fps=3.8 q=24.8 size=N/A time=00:00:18.94 bitrate=N/A    frame=  949 fps=3.8 q=24.8 size=N/A time=00:00:18.98 bitrate=N/A    frame=  952 fps=3.8 q=24.8 size=N/A time=00:00:19.04 bitrate=N/A    frame=  955 fps=3.8 q=24.8 size=N/A time=00:00:19.10 bitrate=N/A    frame=  958 fps=3.8 q=24.8 size=N/A time=00:00:19.16 bitrate=N/A    frame=  961 fps=3.8 q=24.8 size=N/A time=00:00:19.22 bitrate=N/A    frame=  964 fps=3.8 q=24.8 size=N/A time=00:00:19.28 bitrate=N/A    frame=  967 fps=3.8 q=24.8 size=N/A time=00:00:19.34 bitrate=N/A    frame=  969 fps=3.8 q=24.8 size=N/A time=00:00:19.38 bitrate=N/A    frame=  972 fps=3.8 q=24.8 size=N/A time=00:00:19.44 bitrate=N/A    frame=  975 fps=3.8 q=24.8 size=N/A time=00:00:19.50 bitrate=N/A    frame=  978 fps=3.8 q=24.8 size=N/A time=00:00:19.56 bitrate=N/A    frame=  981 fps=3.8 q=24.8 size=N/A time=00:00:19.62 bitrate=N/A    frame=  984 fps=3.8 q=24.8 size=N/A time=00:00:19.68 bitrate=N/A    frame=  986 fps=3.8 q=24.8 size=N/A time=00:00:19.72 bitrate=N/A    frame=  988 fps=3.8 q=24.8 size=N/A time=00:00:19.76 bitrate=N/A    frame=  990 fps=3.8 q=24.8 size=N/A time=00:00:19.80 bitrate=N/A    frame=  993 fps=3.8 q=24.8 size=N/A time=00:00:19.86 bitrate=N/A    frame=  997 fps=3.8 q=24.8 size=N/A time=00:00:19.94 bitrate=N/A    frame= 1000 fps=3.8 q=24.8 size=N/A time=00:00:20.00 bitrate=N/A    frame= 1003 fps=3.8 q=24.8 size=N/A time=00:00:20.06 bitrate=N/A    frame= 1006 fps=3.8 q=24.8 size=N/A time=00:00:20.12 bitrate=N/A    frame= 1009 fps=3.8 q=24.8 size=N/A time=00:00:20.18 bitrate=N/A    frame= 1012 fps=3.8 q=24.8 size=N/A time=00:00:20.24 bitrate=N/A    frame= 1015 fps=3.8 q=24.8 size=N/A time=00:00:20.30 bitrate=N/A    frame= 1018 fps=3.8 q=24.8 size=N/A time=00:00:20.36 bitrate=N/A    frame= 1021 fps=3.8 q=24.8 size=N/A time=00:00:20.42 bitrate=N/A    frame= 1024 fps=3.8 q=24.8 size=N/A time=00:00:20.48 bitrate=N/A    frame= 1027 fps=3.8 q=24.8 size=N/A time=00:00:20.54 bitrate=N/A    frame= 1030 fps=3.8 q=24.8 size=N/A time=00:00:20.60 bitrate=N/A    frame= 1032 fps=3.8 q=24.8 size=N/A time=00:00:20.64 bitrate=N/A    frame= 1035 fps=3.8 q=24.8 size=N/A time=00:00:20.70 bitrate=N/A    frame= 1038 fps=3.8 q=24.8 size=N/A time=00:00:20.76 bitrate=N/A    frame= 1040 fps=3.8 q=24.8 size=N/A time=00:00:20.80 bitrate=N/A    frame= 1043 fps=3.8 q=24.8 size=N/A time=00:00:20.86 bitrate=N/A    frame= 1046 fps=3.8 q=24.8 size=N/A time=00:00:20.92 bitrate=N/A    frame= 1049 fps=3.9 q=24.8 size=N/A time=00:00:20.98 bitrate=N/A    frame= 1052 fps=3.9 q=24.8 size=N/A time=00:00:21.04 bitrate=N/A    frame= 1055 fps=3.9 q=24.8 size=N/A time=00:00:21.10 bitrate=N/A    frame= 1058 fps=3.9 q=24.8 size=N/A time=00:00:21.16 bitrate=N/A    frame= 1061 fps=3.9 q=24.8 size=N/A time=00:00:21.22 bitrate=N/A    frame= 1064 fps=3.9 q=24.8 size=N/A time=00:00:21.28 bitrate=N/A    frame= 1067 fps=3.9 q=24.8 size=N/A time=00:00:21.34 bitrate=N/A    frame= 1069 fps=3.9 q=24.8 size=N/A time=00:00:21.38 bitrate=N/A    frame= 1072 fps=3.9 q=24.8 size=N/A time=00:00:21.44 bitrate=N/A    frame= 1075 fps=3.9 q=24.8 size=N/A time=00:00:21.50 bitrate=N/A    frame= 1078 fps=3.9 q=24.8 size=N/A time=00:00:21.56 bitrate=N/A    frame= 1081 fps=3.9 q=24.8 size=N/A time=00:00:21.62 bitrate=N/A    frame= 1084 fps=3.9 q=24.8 size=N/A time=00:00:21.68 bitrate=N/A    frame= 1087 fps=3.9 q=24.8 size=N/A time=00:00:21.74 bitrate=N/A    frame= 1089 fps=3.9 q=24.8 size=N/A time=00:00:21.78 bitrate=N/A    frame= 1092 fps=3.9 q=24.8 size=N/A time=00:00:21.84 bitrate=N/A    frame= 1094 fps=3.9 q=24.8 size=N/A time=00:00:21.88 bitrate=N/A    frame= 1097 fps=3.9 q=24.8 size=N/A time=00:00:21.94 bitrate=N/A    frame= 1100 fps=3.9 q=24.8 size=N/A time=00:00:22.00 bitrate=N/A    frame= 1102 fps=3.9 q=24.8 size=N/A time=00:00:22.04 bitrate=N/A    frame= 1105 fps=3.9 q=24.8 size=N/A time=00:00:22.10 bitrate=N/A    frame= 1106 fps=3.9 q=24.8 Lsize=N/A time=00:00:22.12 bitrate=N/A    
video:993981kB audio:0kB subtitle:0kB other streams:0kB global headers:0kB muxing overhead: unknown
+ turkic load DJI_0051_30m_szarvasragas_jo_homokmegy_20180603_napos_napraforgo_T3 /home/horvathandras/vatic/vatic/videos/DJI_0051_30m_szarvasragas_jo_homokmegy_20180603_napos_napraforgo_T3 $'Pozit\303\255vROI' $'Negat\303\255vROI' $'T\303\272r\303\241s' '~Friss' '~1-2Hetes' '~Régebbi' '~Egyéb1' '~Egyéb2' '~Egyéb3' $'R\303\241g\303\241s' '~Friss' '~1-2Hetes' '~Régebbi' '~Egyéb1' '~Egyéb2' '~Egyéb3' $'T\303\266r\303\251s' '~Friss' '~1-2Hetes' '~Régebbi' '~Egyéb1' '~Egyéb2' '~Egyéb3' $'Tapos\303\241s' '~Friss' '~1-2Hetes' '~Régebbi' '~Egyéb1' '~Egyéb2' '~Egyéb3' $'Eg\303\251szs\303\251gesN\303\266v\303\251ny' $'Egy\303\251b1' $'Egy\303\251b2' $'Egy\303\251b3' $'Egy\303\251b4' $'Egy\303\251b5' Bizonytalan $'M\305\261vel\305\221\303\272t' $'Gktapos\303\241s' $'Vet\305\221hiba' $'Sz\303\251ld\303\266nt\303\251s' $'J\303\251gk\303\241r' $'Belv\303\255z' $'Asz\303\241ly' $'Er\303\263zi\303\263' $'Egyszik\305\261Gyom' $'K\303\251tszik\305\261Gyom' $'Egy\303\251bN\303\266vv\303\251delmiPR' --offline --title '$filenameNoDot Video' --length 1000 --description 'vatic annotation'
+ turkic publish --offline
+ mkdir /home/horvathandras/vatic/vatic/public/videothumbnails/DJI_0051_30m_szarvasragas_jo_homokmegy_20180603_napos_napraforgo_T3
+ cp /home/horvathandras/vatic/vatic/videos/DJI_0051_30m_szarvasragas_jo_homokmegy_20180603_napos_napraforgo_T3/0/0/31.jpg /home/horvathandras/vatic/vatic/public/videothumbnails/DJI_0051_30m_szarvasragas_jo_homokmegy_20180603_napos_napraforgo_T3/thumb.jpg
